<svg id="Layer_1" data-name="Layer 1" xmlns="http://www.w3.org/2000/svg" viewBox="0 0 1071.34 600.46"><defs><style>.cls-1{fill:#f2f2f2;}</style></defs><path class="cls-1" d="M1215.76,1127l104.45-296.29a10.3,10.3,0,0,0-17.32-10.38l-174.28,190.3-119-304.33a10.3,10.3,0,0,0-19.18,0l-119,304.33L697.12,820.36a10.3,10.3,0,0,0-17.32,10.38L784.25,1127a10.3,10.3,0,0,0,19.43-6.85L716,871.51l151.34,165.26a10.31,10.31,0,0,0,17.2-3.21L1000,738.36l115.45,295.2a10.31,10.31,0,0,0,17.2,3.21L1284,871.51l-87.66,248.66a10.3,10.3,0,0,0,19.43,6.86Z" transform="translate(-464.33 -699.78)"/><path class="cls-1" d="M694.39,1133.9h611.22a10.3,10.3,0,1,0,0-20.6H694.39a10.3,10.3,0,1,0,0,20.6" transform="translate(-464.33 -699.78)"/><path class="cls-1" d="M694.39,1197.85h611.22a10.3,10.3,0,1,0,0-20.6H694.39a10.3,10.3,0,1,0,0,20.6" transform="translate(-464.33 -699.78)"/><path class="cls-1" d="M1083.45,906.74a10.92,10.92,0,0,0,2.71-1.1c.58-.34.88-.56,1.18-.76.56-.4,1-.75,1.49-1.16,1-.78,2.09-1.76,3.47-3,2.59-2.28,6-5.39,10.07-9.12,14.19-13,36.08-33.6,54.46-51s33.22-31.44,33.22-31.45l-7.1-7.47-10.09,2.09,27.85,134.42a10.3,10.3,0,0,0,20.18-4.18L1193,799.65a10.3,10.3,0,0,0-17.18-5.38l-1.11,1.06c-5.45,5.18-30,28.49-53.55,50.58-11.76,11-23.26,21.78-31.94,29.77-4.34,4-8,7.3-10.55,9.56-1.28,1.13-2.3,2-2.92,2.52l-.37.3-.12.09h0l3.09,4.19-2.75-4.41a3,3,0,0,0-.34.23l3.09,4.19-2.75-4.41,4.67,7.49-4-7.88a6.66,6.66,0,0,0-.69.39l4.67,7.49-4-7.88,4.36,8.65-3.65-9-.71.32,4.36,8.65-3.65-9,3.77,9.28-2.48-9.71a10.32,10.32,0,0,0-1.29.42l3.77,9.28-2.48-9.71a10.31,10.31,0,0,0,5.1,20Z" transform="translate(-464.33 -699.78)"/><path class="cls-1" d="M921.1,886.78l-2.49,9.75,4-9.23a9.3,9.3,0,0,0-1.52-.52l-2.49,9.75,4-9.23-3.83,8.81L924,888a9.3,9.3,0,0,0-1.34-.71l-3.83,8.81,5.16-8.1-4,6.19,4.66-5.68a5.85,5.85,0,0,0-.72-.51L920,894.2l4.66-5.68L923.46,890l1.22-1.4,0,0L923.46,890l1.22-1.4-.58-.55c-.63-.62-1.63-1.63-2.85-2.91-2.3-2.41-5.45-5.79-9.16-9.84-13-14.17-32.91-36.41-49.54-55.09-8.31-9.34-15.81-17.79-21.23-23.9L834.91,789c-1.51-1.71-2.34-2.65-2.35-2.65a10.31,10.31,0,0,0-17.71,4.29l-36.23,143a10.31,10.31,0,0,0,20,5.07l36.23-142.95-10-2.53L817.12,800s22.74,25.73,45.84,51.55c11.55,12.92,23.19,25.85,32.15,35.65,4.48,4.9,8.29,9,11.14,12,1.43,1.5,2.6,2.7,3.6,3.66.51.49.95.9,1.49,1.37.28.24.58.48,1.07.83a12.2,12.2,0,0,0,1,.65,9,9,0,0,0,.93.46,10.82,10.82,0,0,0,1.59.55,10.3,10.3,0,0,0,5.13-20Z" transform="translate(-464.33 -699.78)"/><path class="cls-1" d="M524,1299.16h-16l-7-35.22-7.63,35.22H478.08l-13.75-62.1h12.24l9.21,48,9.48-48h11.42l9.55,48,9.14-48H537.7Z" transform="translate(-464.33 -699.78)"/><path class="cls-1" d="M629.79,1247.53h-28.3v15.35h26.08v10.56H601.49v15.26h28.74v10.47H589.6v-62.1h40.19Z" transform="translate(-464.33 -699.78)"/><path class="cls-1" d="M683.46,1237.06h25.73q7.63,0,12.11,4.75a16.23,16.23,0,0,1,4.48,11.58q0,10.2-6.65,14.46a13.69,13.69,0,0,1,6,5.72,16.88,16.88,0,0,1,2.08,8.3q0,8.25-4.39,12.78t-12.29,4.52H683.46v-62.11Zm11.89,25.82h10.91a7.5,7.5,0,0,0,5.68-2,9.54,9.54,0,0,0,1.64-8.2,7.27,7.27,0,0,0-.93-2,6.56,6.56,0,0,0-1.51-1.6,7.55,7.55,0,0,0-2.08-1.07,8.44,8.44,0,0,0-2.71-.4h-11v15.35Zm0,10.55v15.26h12.42a9.63,9.63,0,0,0,3.19-.49,5.92,5.92,0,0,0,2.4-1.51,6.48,6.48,0,0,0,1.46-2.48,11,11,0,0,0,.49-3.42,7.33,7.33,0,0,0-2-5.28,7.2,7.2,0,0,0-5.46-2.08Z" transform="translate(-464.33 -699.78)"/><path class="cls-1" d="M799.41,1236.08q9.93,0,15.57,4.88t5.63,13.75H809.34q-.09-8.25-9.94-8.25a12.89,12.89,0,0,0-5,.89,7,7,0,0,0-3.19,2.44,6.06,6.06,0,0,0-1.06,3.51,5.6,5.6,0,0,0,1.15,3.59,9.65,9.65,0,0,0,3.81,2.62,52,52,0,0,0,7.45,2.39q10.65,2.58,15.26,7.28c3.07,3.14,4.61,7.3,4.61,12.51a20.5,20.5,0,0,1-.75,5.59,17.11,17.11,0,0,1-2.4,5.06,16.67,16.67,0,0,1-4.08,4.13,19.58,19.58,0,0,1-6.17,2.75,31.17,31.17,0,0,1-8.25,1,29.94,29.94,0,0,1-12.29-2.35,18,18,0,0,1-8.07-6.7,18.31,18.31,0,0,1-2.79-10.11h11.27q.09,8.43,11.36,8.43,5.24,0,8-2.08a6.58,6.58,0,0,0,2.66-5.72,5.84,5.84,0,0,0-.53-2.53,6.12,6.12,0,0,0-1.29-1.82,9.06,9.06,0,0,0-2.4-1.46,27.35,27.35,0,0,0-2.84-1.15c-.8-.27-2.06-.64-3.77-1.11-.65-.18-1.15-.32-1.51-.44-3.25-1-5.94-2-8.07-2.84a29,29,0,0,1-6.08-3.46,13.56,13.56,0,0,1-4.3-5.1,16.82,16.82,0,0,1-1.51-7q-.18-8.86,5.32-13.8C787.64,1237.72,792.79,1236.08,799.41,1236.08Z" transform="translate(-464.33 -699.78)"/><path class="cls-1" d="M887.51,1299.16H875.62v-62.1h11.89Z" transform="translate(-464.33 -699.78)"/><path class="cls-1" d="M982.26,1247.53H966.74v51.63h-11.8v-51.63H940v-10.47h42.32v10.47Z" transform="translate(-464.33 -699.78)"/><path class="cls-1" d="M1075.14,1247.53h-28.3v15.35h26.08v10.56h-26.08v15.26h28.74v10.47H1035v-62.1h40.19v10.46Z" transform="translate(-464.33 -699.78)"/><path class="cls-1" d="M1149.29,1263.11l24.86,36.05h-9.49l-20.4-29.89L1138,1277v22.18h-7.81v-62.1H1138v28.13l22.89-28.13h9.76Z" transform="translate(-464.33 -699.78)"/><path class="cls-1" d="M1236,1299.16h-7.81v-62.1H1236Z" transform="translate(-464.33 -699.78)"/><path class="cls-1" d="M1336.85,1299.16h-8.07l-26.61-46.6v46.6h-7.81v-62.1H1302l27.16,47.38v-47.38h7.72Z" transform="translate(-464.33 -699.78)"/><path class="cls-1" d="M1415.72,1235.64a23.14,23.14,0,0,1,11.75,2.79,17,17,0,0,1,7.14,7.85l-6.21,2.84q-3.81-6.57-12.69-6.48-14,0-14,14.19V1280a15.2,15.2,0,0,0,1.15,6.17,9.75,9.75,0,0,0,3.19,4.08,14.55,14.55,0,0,0,4.44,2.17,18.16,18.16,0,0,0,5.15.71,15,15,0,0,0,9.76-3.1q3.81-3.1,3.81-10v-7.81h-11v-6.65H1437v33.62h-5.86l-.27-6.92a14.66,14.66,0,0,1-6.74,5.94,22.5,22.5,0,0,1-9.32,2,24.4,24.4,0,0,1-7.5-1.15,22.22,22.22,0,0,1-6.65-3.46,16.28,16.28,0,0,1-4.92-6.34,21.69,21.69,0,0,1-1.86-9.18v-23.16q0-10.29,5.94-15.75T1415.72,1235.64Z" transform="translate(-464.33 -699.78)"/><path class="cls-1" d="M1513.66,1236.08q9.31,0,15,4.57t5.77,12.73H1527a9.12,9.12,0,0,0-3.77-7.76,16.13,16.13,0,0,0-9.54-2.62,15.3,15.3,0,0,0-9.27,2.62,8.29,8.29,0,0,0-3.59,7.05,6.91,6.91,0,0,0,3.46,6.12q3.46,2.22,11.18,4.44,10.11,2.74,15.17,7.1a14.66,14.66,0,0,1,5.06,11.71,17.33,17.33,0,0,1-5.23,13q-5.24,5.06-16.24,5.06-10.2,0-16.19-5.14a16.73,16.73,0,0,1-6.08-13h7.45a10.45,10.45,0,0,0,3.73,8q3.63,3.19,10.82,3.19t10.65-3a10,10,0,0,0,3.55-8.12,8.34,8.34,0,0,0-.49-2.93,6.11,6.11,0,0,0-1.64-2.39,25.89,25.89,0,0,0-2.17-1.82,13.78,13.78,0,0,0-3.06-1.55c-1.36-.53-2.48-.94-3.37-1.24s-2.19-.71-3.9-1.24a2,2,0,0,0-.62-.18q-3.81-1.25-6.3-2.17a43,43,0,0,1-5.23-2.4,17.91,17.91,0,0,1-4.35-3.1,13.59,13.59,0,0,1-3.72-9.45q-.09-8.25,5.5-12.86T1513.66,1236.08Z" transform="translate(-464.33 -699.78)"/></svg>