<svg id="Layer_1" data-name="Layer 1" xmlns="http://www.w3.org/2000/svg" viewBox="0 0 641.58 498.07"><defs><style>.cls-1{fill:#f2f2f2;}</style></defs><path class="cls-1" d="M1215.76,1178.22l104.45-296.3a10.3,10.3,0,0,0-17.32-10.38l-174.28,190.3-119-304.32a10.3,10.3,0,0,0-19.18,0l-119,304.33L697.12,871.55a10.3,10.3,0,0,0-17.32,10.38l104.45,296.29a10.3,10.3,0,0,0,19.43-6.85L716,922.7,867.36,1088a10.31,10.31,0,0,0,17.2-3.21L1000,789.54l115.45,295.21a10.31,10.31,0,0,0,17.2,3.21L1284,922.7l-87.66,248.66a10.3,10.3,0,0,0,19.43,6.86Z" transform="translate(-679.22 -750.97)"/><path class="cls-1" d="M694.39,1185.09h611.22a10.31,10.31,0,0,0,0-20.61H694.39a10.31,10.31,0,0,0,0,20.61" transform="translate(-679.22 -750.97)"/><path class="cls-1" d="M694.39,1249h611.22a10.3,10.3,0,1,0,0-20.6H694.39a10.3,10.3,0,0,0,0,20.6" transform="translate(-679.22 -750.97)"/><path class="cls-1" d="M1083.45,957.92a10.44,10.44,0,0,0,1.37-.45,12.28,12.28,0,0,0,1.34-.65c.58-.34.88-.56,1.18-.76.56-.4,1-.75,1.49-1.16,1-.78,2.09-1.76,3.47-3,2.59-2.28,6-5.39,10.07-9.12,14.19-13,36.08-33.59,54.46-50.95s33.22-31.44,33.22-31.45l-7.1-7.47-10.09,2.1,27.85,134.41a10.3,10.3,0,0,0,20.18-4.17L1193,850.84a10.3,10.3,0,0,0-17.18-5.38l-1.11,1.06c-5.45,5.18-30,28.49-53.55,50.58-11.76,11-23.26,21.78-31.94,29.77-4.34,4-8,7.3-10.55,9.56-1.28,1.13-2.3,2-2.92,2.52l-.37.3-.12.09h0l3.09,4.19-2.75-4.41a3,3,0,0,0-.34.23l3.09,4.19-2.75-4.41,4.67,7.49-4-7.88a6.66,6.66,0,0,0-.69.39l4.67,7.49-4-7.88,4.36,8.65-3.65-9-.71.32,4.36,8.65-3.65-9,3.77,9.28-2.48-9.71a10.32,10.32,0,0,0-1.29.42l3.77,9.28-2.48-9.71a10.3,10.3,0,0,0,5.1,20Z" transform="translate(-679.22 -750.97)"/><path class="cls-1" d="M921.1,938l-2.49,9.75,4-9.23a9.3,9.3,0,0,0-1.52-.52l-2.49,9.75,4-9.23-3.83,8.81,5.16-8.1a9.3,9.3,0,0,0-1.34-.71l-3.83,8.81,5.16-8.1-4,6.19,4.66-5.68a5.85,5.85,0,0,0-.72-.51L920,945.39l4.66-5.68-1.18,1.43,1.22-1.4,0,0-1.18,1.43,1.22-1.41-.58-.55c-.63-.61-1.63-1.63-2.85-2.9-2.3-2.41-5.45-5.79-9.16-9.85-13-14.16-32.91-36.4-49.54-55.09-8.31-9.34-15.81-17.79-21.23-23.9l-6.41-7.24c-1.51-1.71-2.34-2.65-2.35-2.65a10.31,10.31,0,0,0-17.71,4.29L778.62,984.79a10.31,10.31,0,0,0,20,5.07l36.23-143-10-2.53-7.72,6.82s22.74,25.73,45.84,51.55c11.55,12.92,23.19,25.85,32.15,35.65,4.48,4.9,8.29,9,11.14,12,1.43,1.5,2.6,2.7,3.6,3.66.51.49.95.9,1.49,1.37.28.24.58.48,1.07.83a12.2,12.2,0,0,0,1,.65,9,9,0,0,0,.93.46,10.82,10.82,0,0,0,1.59.55A10.29,10.29,0,0,0,921.1,938Z" transform="translate(-679.22 -750.97)"/></svg>