<?xml version="1.0" encoding="utf-8"?>
<!-- Generator: Adobe Illustrator 23.0.3, SVG Export Plug-In . SVG Version: 6.00 Build 0)  -->
<svg version="1.1" id="Layer_1" xmlns="http://www.w3.org/2000/svg" xmlns:xlink="http://www.w3.org/1999/xlink" x="0px" y="0px"
	 viewBox="0 0 2000 2000" style="enable-background:new 0 0 2000 2000;" xml:space="preserve">
<g>
	<g>
		<g>
			<path d="M1215.76,1127.03l104.45-296.29c1.62-4.61-0.23-9.75-4.42-12.26c-4.19-2.51-9.6-1.72-12.9,1.88l-174.28,190.3
				L1009.6,706.33c-1.54-3.94-5.37-6.55-9.59-6.55c-4.23,0-8.05,2.61-9.59,6.55l-119.02,304.33l-174.28-190.3
				c-3.3-3.6-8.71-4.39-12.9-1.88c-4.19,2.51-6.04,7.65-4.42,12.26l104.45,296.29c1.89,5.37,7.78,8.18,13.14,6.29
				c5.37-1.89,8.18-7.78,6.29-13.14l-87.66-248.67l151.34,165.26c2.4,2.62,6,3.82,9.49,3.17c3.49-0.65,6.41-3.07,7.71-6.38
				L1000,738.36l115.45,295.2c1.29,3.3,4.22,5.73,7.71,6.38c3.49,0.65,7.09-0.55,9.49-3.17l151.34-165.26l-87.66,248.66
				c-1.89,5.37,0.92,11.25,6.29,13.14C1207.98,1135.21,1213.87,1132.39,1215.76,1127.03L1215.76,1127.03z"/>
			<path d="M694.39,1133.9h611.22c5.69,0,10.3-4.61,10.3-10.3c0-5.69-4.61-10.3-10.3-10.3H694.39c-5.69,0-10.3,4.61-10.3,10.3
				C684.09,1129.29,688.7,1133.9,694.39,1133.9"/>
			<path d="M694.39,1197.85h611.22c5.69,0,10.3-4.61,10.3-10.3c0-5.69-4.61-10.3-10.3-10.3H694.39c-5.69,0-10.3,4.61-10.3,10.3
				C684.09,1193.24,688.7,1197.85,694.39,1197.85"/>
			<path d="M1083.45,906.74c0.61-0.16,1.03-0.32,1.37-0.45c0.67-0.28,1.03-0.48,1.34-0.65c0.58-0.34,0.88-0.56,1.18-0.76
				c0.56-0.4,0.99-0.75,1.49-1.16c0.95-0.78,2.09-1.76,3.47-2.99c2.59-2.28,6.01-5.39,10.07-9.12
				c14.19-13.03,36.08-33.6,54.46-50.95c18.38-17.34,33.22-31.44,33.22-31.45l-7.1-7.47l-10.09,2.09l27.85,134.42
				c1.15,5.57,6.61,9.15,12.18,8c5.57-1.15,9.15-6.61,8-12.18l-27.85-134.42c-0.76-3.67-3.43-6.62-7.01-7.74
				c-3.58-1.12-7.46-0.22-10.17,2.36c0,0-0.39,0.37-1.11,1.06c-5.45,5.18-30.03,28.49-53.55,50.58
				c-11.76,11.04-23.26,21.78-31.94,29.77c-4.34,3.99-7.98,7.3-10.55,9.56c-1.28,1.13-2.3,2.01-2.92,2.52
				c-0.15,0.13-0.28,0.23-0.37,0.3l-0.12,0.09l0,0l3.09,4.19l-2.75-4.41c-0.27,0.17-0.33,0.22-0.34,0.23l3.09,4.19l-2.75-4.41
				l4.67,7.49l-3.97-7.88c-0.36,0.18-0.55,0.3-0.69,0.39l4.67,7.49l-3.97-7.88l4.36,8.65l-3.65-8.98c-0.31,0.13-0.53,0.23-0.71,0.32
				l4.36,8.65l-3.65-8.98l3.77,9.28l-2.48-9.71c-0.59,0.15-0.98,0.3-1.29,0.42l3.77,9.28l-2.48-9.71
				c-5.51,1.41-8.84,7.02-7.43,12.53C1072.33,904.82,1077.94,908.15,1083.45,906.74L1083.45,906.74z"/>
			<path d="M921.1,886.78l-2.49,9.75l4.01-9.23C922.25,887.14,921.78,886.95,921.1,886.78l-2.49,9.75l4.01-9.23l-3.83,8.81l5.16-8.1
				c-0.27-0.17-0.62-0.39-1.34-0.71l-3.83,8.81l5.16-8.1l-3.95,6.19l4.66-5.68c-0.08-0.06-0.21-0.19-0.72-0.51l-3.95,6.19l4.66-5.68
				l-1.18,1.43l1.22-1.4l-0.04-0.03l-1.18,1.43l1.22-1.4c-0.02-0.02-0.26-0.24-0.58-0.55c-0.63-0.62-1.63-1.63-2.85-2.91
				c-2.3-2.41-5.45-5.79-9.16-9.84c-13-14.17-32.91-36.41-49.54-55.09c-8.31-9.34-15.81-17.79-21.23-23.9
				c-2.71-3.06-4.9-5.53-6.41-7.24c-1.51-1.71-2.34-2.65-2.35-2.65c-2.53-2.86-6.44-4.09-10.15-3.19c-3.71,0.9-6.62,3.78-7.56,7.48
				l-36.23,142.95c-1.4,5.52,1.94,11.12,7.46,12.52c5.52,1.4,11.12-1.94,12.52-7.45l36.23-142.95l-9.99-2.53l-7.72,6.82
				c0.01,0.01,22.74,25.73,45.84,51.55c11.55,12.92,23.19,25.85,32.15,35.65c4.48,4.9,8.29,9.01,11.14,11.99
				c1.43,1.5,2.6,2.7,3.6,3.66c0.51,0.49,0.95,0.9,1.49,1.37c0.28,0.24,0.58,0.48,1.07,0.83c0.26,0.18,0.56,0.38,1.04,0.65
				c0.24,0.14,0.54,0.29,0.93,0.46c0.39,0.17,0.88,0.36,1.59,0.55c5.51,1.41,11.12-1.92,12.53-7.43
				C929.93,893.8,926.61,888.19,921.1,886.78L921.1,886.78z"/>
		</g>
	</g>
	<g>
		<path d="M524.04,1299.16h-15.96l-7.02-35.22l-7.63,35.22h-15.35l-13.75-62.1h12.24l9.21,48l9.48-48h11.42l9.55,48l9.14-48h12.33
			L524.04,1299.16z"/>
		<path d="M629.79,1247.53h-28.3v15.35h26.08v10.56h-26.08v15.26h28.74v10.47H589.6v-62.1h40.19V1247.53z"/>
		<path d="M683.46,1237.06h25.73c5.09,0,9.12,1.58,12.11,4.75c2.99,3.17,4.48,7.02,4.48,11.58c0,6.8-2.22,11.62-6.65,14.46
			c2.6,1.3,4.6,3.21,5.99,5.72c1.39,2.52,2.08,5.28,2.08,8.3c0,5.5-1.46,9.76-4.39,12.78c-2.93,3.02-7.02,4.52-12.29,4.52h-27.06
			V1237.06z M695.35,1262.88h10.91c2.48,0,4.38-0.68,5.68-2.04c1.3-1.36,1.95-3.34,1.95-5.94c0-0.77-0.1-1.52-0.31-2.26
			c-0.21-0.74-0.52-1.42-0.93-2.04c-0.41-0.62-0.92-1.15-1.51-1.6c-0.59-0.44-1.29-0.8-2.08-1.07c-0.8-0.27-1.7-0.4-2.71-0.4h-11
			V1262.88z M695.35,1273.43v15.26h12.42c1.18,0,2.25-0.16,3.19-0.49c0.95-0.32,1.74-0.83,2.4-1.51c0.65-0.68,1.14-1.51,1.46-2.48
			c0.32-0.98,0.49-2.11,0.49-3.42c0-2.13-0.67-3.89-2-5.28c-1.33-1.39-3.15-2.08-5.46-2.08H695.35z"/>
		<path d="M799.41,1236.08c6.62,0,11.81,1.63,15.57,4.88c3.76,3.25,5.63,7.84,5.63,13.75h-11.27c-0.06-5.5-3.37-8.25-9.94-8.25
			c-1.89,0-3.55,0.3-4.97,0.89c-1.42,0.59-2.48,1.41-3.19,2.44c-0.71,1.04-1.06,2.2-1.06,3.51c0,1.42,0.38,2.62,1.15,3.59
			c0.77,0.98,2.04,1.85,3.81,2.62c1.77,0.77,4.26,1.57,7.45,2.39c7.1,1.72,12.18,4.14,15.26,7.28c3.07,3.14,4.61,7.3,4.61,12.51
			c0,1.95-0.25,3.82-0.75,5.59c-0.5,1.77-1.3,3.46-2.4,5.06c-1.1,1.6-2.46,2.97-4.08,4.13c-1.63,1.15-3.68,2.07-6.17,2.75
			c-2.48,0.68-5.23,1.02-8.25,1.02c-4.67,0-8.77-0.78-12.29-2.35c-3.52-1.57-6.21-3.8-8.07-6.7c-1.86-2.9-2.79-6.27-2.79-10.11
			h11.27c0.06,5.62,3.84,8.43,11.36,8.43c3.49,0,6.15-0.69,7.98-2.08c1.83-1.39,2.72-3.3,2.66-5.72c0-0.95-0.18-1.79-0.53-2.53
			c-0.36-0.74-0.78-1.34-1.29-1.82c-0.5-0.47-1.3-0.96-2.4-1.46c-1.09-0.5-2.04-0.89-2.84-1.15c-0.8-0.27-2.06-0.64-3.77-1.11
			c-0.65-0.18-1.15-0.32-1.51-0.44c-3.25-1.01-5.94-1.95-8.07-2.84c-2.13-0.89-4.16-2.04-6.08-3.46c-1.92-1.42-3.36-3.12-4.3-5.1
			c-0.95-1.98-1.45-4.3-1.51-6.96c-0.12-5.91,1.66-10.51,5.32-13.8C787.64,1237.72,792.79,1236.08,799.41,1236.08z"/>
		<path d="M887.51,1299.16h-11.89v-62.1h11.89V1299.16z"/>
		<path d="M982.26,1247.53h-15.52v51.63h-11.8v-51.63h-14.99v-10.47h42.32V1247.53z"/>
		<path d="M1075.14,1247.53h-28.3v15.35h26.08v10.56h-26.08v15.26h28.74v10.47h-40.63v-62.1h40.19V1247.53z"/>
		<path d="M1149.29,1263.11l24.86,36.05h-9.49l-20.4-29.89l-6.3,7.71v22.18h-7.81v-62.1h7.81v28.13l22.89-28.13h9.76
			L1149.29,1263.11z"/>
		<path d="M1235.98,1299.16h-7.81v-62.1h7.81V1299.16z"/>
		<path d="M1336.85,1299.16h-8.07l-26.61-46.6v46.6h-7.81v-62.1h7.61l27.16,47.38v-47.38h7.72V1299.16z"/>
		<path d="M1415.72,1235.64c4.61,0,8.53,0.93,11.75,2.79c3.22,1.86,5.6,4.48,7.14,7.85l-6.21,2.84c-2.54-4.38-6.77-6.53-12.69-6.48
			c-9.35,0-14.02,4.73-14.02,14.19V1280c0,2.37,0.38,4.42,1.15,6.17c0.77,1.74,1.83,3.1,3.19,4.08c1.36,0.98,2.84,1.7,4.44,2.17
			c1.6,0.47,3.31,0.71,5.15,0.71c3.96,0,7.21-1.03,9.76-3.1c2.54-2.07,3.81-5.41,3.81-10.03v-7.81h-11v-6.65h18.81v33.62h-5.86
			l-0.27-6.92c-1.6,2.66-3.84,4.64-6.74,5.94c-2.9,1.3-6,1.95-9.32,1.95c-2.6,0-5.1-0.38-7.5-1.15c-2.4-0.77-4.61-1.92-6.65-3.46
			c-2.04-1.54-3.68-3.65-4.92-6.34c-1.24-2.69-1.86-5.75-1.86-9.18v-23.16c0-6.86,1.98-12.11,5.94-15.75
			C1403.8,1237.46,1409.1,1235.64,1415.72,1235.64z"/>
		<path d="M1513.66,1236.08c6.21,0,11.21,1.52,14.99,4.57c3.78,3.05,5.71,7.29,5.77,12.73h-7.45c-0.06-3.43-1.32-6.02-3.77-7.76
			c-2.46-1.74-5.63-2.62-9.54-2.62c-3.79,0-6.88,0.87-9.27,2.62c-2.39,1.74-3.59,4.1-3.59,7.05c0,2.6,1.15,4.64,3.46,6.12
			c2.31,1.48,6.03,2.96,11.18,4.44c6.74,1.83,11.8,4.2,15.17,7.1c3.37,2.9,5.06,6.8,5.06,11.71c0,5.32-1.74,9.67-5.23,13.04
			c-3.49,3.37-8.9,5.06-16.24,5.06c-6.8,0-12.2-1.71-16.19-5.14c-3.99-3.43-6.02-7.78-6.08-13.04h7.45c0.06,3.19,1.3,5.85,3.73,7.98
			c2.42,2.13,6.03,3.19,10.82,3.19c4.73,0,8.28-0.99,10.65-2.97c2.37-1.98,3.55-4.69,3.55-8.12c0-1.07-0.16-2.04-0.49-2.93
			c-0.33-0.89-0.87-1.68-1.64-2.39c-0.77-0.71-1.49-1.32-2.17-1.82c-0.68-0.5-1.7-1.02-3.06-1.55c-1.36-0.53-2.48-0.94-3.37-1.24
			c-0.89-0.3-2.19-0.71-3.9-1.24c-0.3-0.12-0.5-0.18-0.62-0.18c-2.54-0.83-4.64-1.55-6.3-2.17c-1.66-0.62-3.4-1.42-5.23-2.4
			c-1.83-0.98-3.28-2.01-4.35-3.1c-1.07-1.09-1.95-2.45-2.66-4.08c-0.71-1.63-1.06-3.42-1.06-5.37c-0.06-5.5,1.77-9.79,5.5-12.86
			C1502.48,1237.62,1507.45,1236.08,1513.66,1236.08z"/>
	</g>
</g>
</svg>
